Coordinates
version=1
nRows=14
nColumns=32
inDegrees=yes

Units are S.I. units (second, meters, Newtons, ...)
If the header above contains a line with 'inDegrees', this indicates whether rotational values are in degrees (yes) or radians (no).

endheader
time	pelvis_tilt	pelvis_list	pelvis_rotation	pelvis_tx	pelvis_ty	pelvis_tz	hip_flexion_r	hip_adduction_r	hip_rotation_r	knee_angle_r	knee_adduction_r	med_cond_adduction_r	lat_cond_adduction_r	patella_r_constrained_knee_angle	ankle_angle_r	subtalar_angle_r	mtp_angle_r	hip_flexion_l	hip_adduction_l	hip_rotation_l	knee_angle_l	knee_adduction_l	med_cond_adduction_l	lat_cond_adduction_l	patella_l_constrained_knee_angle	ankle_angle_l	subtalar_angle_l	mtp_angle_l	lumbar_extension	lumbar_bending	lumbar_rotation
      3.76000000	     -3.94587668	     -2.81380020	     88.27820594	      0.19014753	      0.85348520	      0.37349638	    -10.32107372	    -15.54298494	    -39.74588697	    -35.61891834	     -0.00000000	      0.00000000	     -0.00000000	     -0.62166740	    -14.45619780	     16.92232639	      0.00000000	     27.46734803	      5.87316974	     -3.38389278	    -13.80900973	      0.00000000	     -0.00000000	      0.00000000	     -0.24101269	    -10.91345072	     -4.63638118	     -0.00000000	     -0.00000000	      0.00000000	     -0.00000000
      3.76500000	     -4.38662958	     -2.74683982	     88.77579601	      0.18842340	      0.85409297	      0.36582214	    -10.34107737	    -16.16244151	    -39.71711235	    -36.42785015	      0.00000000	      0.00000000	     -0.00000000	     -0.63578592	    -16.45407756	     15.40235471	     -0.00000000	     27.06085628	      6.68165587	     -2.81853130	    -14.09021080	      0.00000000	     -0.00000000	      0.00000000	     -0.24592057	    -11.02677353	     -4.96777109	      0.00000000	     -0.00000000	      0.00000000	     -0.00000000
      3.77000000	     -4.78084306	     -2.66832334	     89.28315913	      0.18681087	      0.85478194	      0.35822637	    -10.34558373	    -16.69412088	    -39.68406862	    -37.23613737	      0.00000000	      0.00000000	     -0.00000000	     -0.64989320	    -18.41201671	     13.51637523	     -0.00000000	     26.61325640	      7.43786623	     -2.22650261	    -14.34127126	      0.00000000	     -0.00000000	      0.00000000	     -0.25030240	    -11.06996325	     -5.29800840	     -0.00000000	     -0.00000000	      0.00000000	      0.00000000
      3.77500000	     -5.15129954	     -2.58901697	     89.75827789	      0.18526594	      0.85549729	      0.35067265	    -10.32611661	    -17.20651477	    -39.63770412	    -38.02972367	      0.00000000	     -0.00000000	      0.00000000	     -0.66374389	    -20.37351630	     11.67981489	     -0.00000000	     26.16571411	      8.12728325	     -1.80603978	    -14.62340240	      0.00000000	     -0.00000000	      0.00000000	     -0.25522652	    -10.91292509	     -5.34806314	      0.00000000	     -0.00000000	      0.00000000	      0.00000000
      3.78000000	     -5.50829434	     -2.52408261	     90.26150735	      0.18365816	      0.85621181	      0.34325406	    -10.25689926	    -17.69689516	    -39.57903086	    -38.85295423	      0.00000000	     -0.00000000	      0.00000000	     -0.67811198	    -22.28835918	      9.79484589	     -0.00000000	     25.70719672	      8.83058503	     -1.22827930	    -14.86690699	      0.00000000	      0.00000000	     -0.00000000	     -0.25947648	    -10.77569249	     -5.55086818	      0.00000000	     -0.00000000	      0.00000000	      0.00000000
      3.78500000	     -5.81734614	     -2.45730076	     90.75392184	      0.18209084	      0.85698802	      0.33589037	    -10.16460517	    -18.13118801	    -39.49926044	    -39.66582958	      0.00000000	     -0.00000000	      0.00000000	     -0.69229933	    -24.14361155	      7.94974995	     -0.00000000	     25.22509890	      9.46387020	     -0.72037868	    -15.09288775	      0.00000000	     -0.00000000	      0.00000000	     -0.26342058	    -10.55218025	     -5.64991315	      0.00000000	     -0.00000000	      0.00000000	      0.00000000
      3.79000000	     -6.10075521	     -2.37753662	     91.23338658	      0.18054096	      0.85781001	      0.32863593	    -10.04970789	    -18.53303104	    -39.38573372	    -40.48463036	     -0.00000000	     -0.00000000	      0.00000000	     -0.70659010	    -25.89197889	      6.14142926	      0.00000000	     24.70869411	     10.06221426	     -0.18359209	    -15.29794037	      0.00000000	     -0.00000000	      0.00000000	     -0.26699943	    -10.27535258	     -5.78343451	     -0.00000000	     -0.00000000	      0.00000000	      0.00000000
      3.79500000	     -6.35806468	     -2.30520575	     91.68011742	      0.17906096	      0.85865242	      0.32144446	     -9.88288293	    -18.90738214	    -39.21030779	    -41.31924241	     -0.00000000	     -0.00000000	      0.00000000	     -0.72115682	    -27.44239766	      4.48797345	     -0.00000000	     24.18933575	     10.60568282	      0.29290643	    -15.49342157	     -0.00000000	     -0.00000000	      0.00000000	     -0.27041122	     -9.92268909	     -5.82357347	      0.00000000	     -0.00000000	      0.00000000	      0.00000000
      3.80000000	     -6.57840676	     -2.23282106	     92.09871925	      0.17763428	      0.85952941	      0.31437699	     -9.65360224	    -19.23732382	    -38.94343386	    -42.18153725	      0.00000000	     -0.00000000	      0.00000000	     -0.73620671	    -28.81100685	      2.92400367	     -0.00000000	     23.64758224	     11.09752714	      0.78257621	    -15.65210242	     -0.00000000	      0.00000000	     -0.00000000	     -0.27318072	     -9.57380869	     -5.95436482	      0.00000000	     -0.00000000	      0.00000000	      0.00000000
      3.80500000	     -6.77413320	     -2.15469733	     92.44839147	      0.17635744	      0.86046394	      0.30741689	     -9.35101045	    -19.53630022	    -38.53862127	    -43.06587926	      0.00000000	      0.00000000	     -0.00000000	     -0.75164139	    -29.97309712	      1.53022368	      0.00000000	     23.09607773	     11.51071803	      1.15444289	    -15.79512449	     -0.00000000	      0.00000000	     -0.00000000	     -0.27567693	     -9.16417397	     -5.88380711	      0.00000000	     -0.00000000	      0.00000000	      0.00000000
      3.81000000	     -6.99007329	     -2.11062004	     92.69135458	      0.17514798	      0.86135966	      0.30056642	     -8.90357435	    -19.88322384	    -37.94321948	    -44.03951955	     -0.00000000	      0.00000000	     -0.00000000	     -0.76863462	    -30.73300390	      0.39222684	      0.00000000	     22.57232751	     11.91030779	      1.44226833	    -15.90628288	      0.00000000	      0.00000000	     -0.00000000	     -0.27761701	     -8.75535476	     -5.94590283	      0.00000000	     -0.00000000	      0.00000000	      0.00000000
      3.81500000	     -7.04600876	     -2.09527003	     92.91468843	      0.17410796	      0.86229413	      0.29384473	     -8.35019412	    -20.00826218	    -37.23679219	    -44.96648475	     -0.00000000	      0.00000000	     -0.00000000	     -0.78481321	    -31.36254692	     -0.73584880	      0.00000000	     22.08683564	     12.11447308	      1.70964703	    -16.02883261	     -0.00000000	     -0.00000000	      0.00000000	     -0.27975590	     -8.26472987	     -5.88605079	     -0.00000000	     -0.00000000	      0.00000000	      0.00000000
      3.82000000	     -7.14208968	     -2.09571052	     93.08091165	      0.17311360	      0.86322245	      0.28719096	     -7.71376679	    -20.18603347	    -36.42052419	    -45.94553176	     -0.00000000	     -0.00000000	      0.00000000	     -0.80190081	    -31.56156280	     -1.44896588	     -0.00000000	     21.59492135	     12.33827691	      1.93075856	    -16.09072678	      0.00000000	      0.00000000	      0.00000000	     -0.28083616	     -7.79916274	     -5.86400865	     -0.00000000	     -0.00000000	      0.00000000	      0.00000000
      3.82500000	     -7.16550525	     -2.07075750	     93.10310102	      0.17245344	      0.86425216	      0.28067980	     -6.96384694	    -20.26153705	    -35.38759572	    -46.92748591	     -0.00000000	     -0.00000000	      0.00000000	     -0.81903914	    -31.56222771	     -2.16343385	     -0.00000000	     21.10247697	     12.39786485	      1.91784156	    -16.15783982	     -0.00000000	     -0.00000000	      0.00000000	     -0.28200750	     -7.27648562	     -5.60416039	     -0.00000000	     -0.00000000	      0.00000000	      0.00000000
